<svg width="24" height="24" viewBox="0 0 24 24" fill="none" xmlns="http://www.w3.org/2000/svg">
<path d="M21.818 19.4545C21.818 20.0332 21.5881 20.5882 21.179 20.9973C20.7698 21.4065 20.2148 21.6364 19.6362 21.6364H18.5453C17.9666 21.6364 17.4117 21.4065 17.0025 20.9973C16.5933 20.5882 16.3635 20.0332 16.3635 19.4545V16.1818C16.3635 15.6032 16.5933 15.0482 17.0025 14.639C17.4117 14.2299 17.9666 14 18.5453 14H21.818V19.4545ZM2.18164 19.4545C2.18164 20.0332 2.41151 20.5882 2.82068 20.9973C3.22985 21.4065 3.7848 21.6364 4.36346 21.6364H5.45437C6.03302 21.6364 6.58798 21.4065 6.99715 20.9973C7.40632 20.5882 7.63619 20.0332 7.63619 19.4545V16.1818C7.63619 15.6032 7.40632 15.0482 6.99715 14.639C6.58798 14.2299 6.03302 14 5.45437 14H2.18164V19.4545Z" stroke="#222222" stroke-width="2" stroke-linecap="round" stroke-linejoin="round"/>
<path d="M2.18164 18.5453V11.9998C2.18164 9.39588 3.21605 6.89859 5.05732 5.05732C6.89859 3.21605 9.39588 2.18164 11.9998 2.18164C14.6038 2.18164 17.1011 3.21605 18.9423 5.05732C20.7836 6.89859 21.818 9.39588 21.818 11.9998V18.5453" stroke="#222222" stroke-width="2" stroke-linecap="round" stroke-linejoin="round"/>
</svg>
