<svg width="21" height="20" viewBox="0 0 21 20" fill="none" xmlns="http://www.w3.org/2000/svg">
<path d="M16.4995 13.9791V16.3877C16.5004 16.6113 16.4545 16.8327 16.3648 17.0375C16.275 17.2424 16.1434 17.4263 15.9783 17.5775C15.8132 17.7286 15.6183 17.8437 15.406 17.9154C15.1938 17.987 14.9689 18.0136 14.7457 17.9935C12.2702 17.725 9.89235 16.8808 7.80312 15.5286C5.85937 14.2959 4.21141 12.6512 2.97627 10.7113C1.61669 8.61679 0.770593 6.23206 0.50653 3.75036C0.486426 3.52834 0.512865 3.30457 0.584162 3.0933C0.655459 2.88203 0.770052 2.6879 0.920646 2.52325C1.07124 2.35861 1.25454 2.22706 1.45886 2.13699C1.66319 2.04691 1.88407 2.00029 2.10744 2.00008H4.52086C4.91128 1.99624 5.28977 2.13422 5.5858 2.3883C5.88182 2.64237 6.07517 2.99521 6.12981 3.38103C6.23168 4.15185 6.42059 4.9087 6.69295 5.63713C6.80118 5.9245 6.82461 6.23682 6.76045 6.53707C6.69629 6.83732 6.54723 7.11292 6.33093 7.33121L5.30925 8.35087C6.45447 10.3609 8.12206 12.0252 10.1361 13.1682L11.1578 12.1485C11.3765 11.9326 11.6527 11.7839 11.9535 11.7198C12.2544 11.6558 12.5673 11.6792 12.8552 11.7872C13.5851 12.059 14.3435 12.2476 15.1158 12.3492C15.5066 12.4042 15.8635 12.6007 16.1186 12.9012C16.3737 13.2017 16.5093 13.5853 16.4995 13.9791Z" fill="#444444"/>
</svg>
